o Box
v 1.55 0 0.75
v 1.5 0 0.7
v -1.5 0 0.7
v -1.55 0 0.75
v -1.5 0 -0.7
v -1.55 0 -0.75
v 1.55 0 -0.75
v 1.5 0 -0.7
v 1.45 -0.4 0.65
v 1.45 -0.4 -0.65
v -1.45 -0.4 0.65
v -1.45 -0.4 -0.65
v -1.6 -0.1 0.8
v -1.6 -0.1 -0.8
v 1.6 -0.1 0.8
v 1.6 -0.1 -0.8
vn 0 1 0
vn -0.992277876713668 0.124034734589209 0
vn 0 0.124034734589208 -0.992277876713668
vn 0.992277876713668 0.124034734589209 0
vn -0.894427190999916 0.447213595499958 0
vn 0 0.447213595499958 0.894427190999916
vn 0.894427190999916 0.447213595499958 0
vn 0 0.447213595499958 -0.894427190999916
vn 0 0.124034734589208 0.992277876713668
g Box
f 1//1 2//1 3//1 4//1
f 5//1 6//1 4//1 3//1
f 1//1 7//1 8//1 2//1
f 9//2 2//2 8//2 10//2
f 11//3 3//3 2//3 9//3
f 12//4 5//4 3//4 11//4
f 13//5 4//5 6//5 14//5
f 15//6 1//6 4//6 13//6
f 16//7 7//7 1//7 15//7
f 12//1 11//1 9//1 10//1
f 7//8 16//8 14//8 6//8
f 10//9 8//9 5//9 12//9
f 6//1 5//1 8//1 7//1
#h 
